<svg viewBox="0 0 512 512" xmlns="http://www.w3.org/2000/svg"><path d="M269.72 45.4c-4 1.69-9.36 4.34-15 7.22-11.18 5.73-14.23 20-6.9 30.21.39.54.77 1.09 1.13 1.66l35.14 53.85a11.69 11.69 0 0 0 16.32 3.32c47.77-32.18 110-61.09 177.23-58.67A8.93 8.93 0 0 0 486 70c-9.3-17.9-32.23-43.65-98.57-46.51A270.83 270.83 0 0 0 269.72 45.4ZM71.07 460.37a82.62 82.62 0 0 0 35.5 7.78c24.48.05 80.3-2.62 121.76-25.68 9.19-5.12 5.38-19.21-5.13-18.76-27.4 1.16-62-5.76-71.07-45.54-7.66-33.78 4.69-70.08 19.15-98.15a17.54 17.54 0 0 0-3.61-20.85l-58.1-54.4-.2-.18a20.27 20.27 0 0 0-31.21 3.72 389.72 389.72 0 0 0-41.21 89s-43.09 126.2 34.12 163.06ZM469.18 460.35l-51.29-71.23 19.76-16.56a22.18 22.18 0 0 0 2.75-31.23l-1.4-1.67a6.26 6.26 0 0 0-8.82-.78L327 425.41a6.26 6.26 0 0 0-.78 8.82l1.4 1.67a22.18 22.18 0 0 0 31.23 2.75l19.76-16.56L439.74 485a12.28 12.28 0 0 0 16.69.85l5.34-4.47 5.33-4.47a12.28 12.28 0 0 0 2.08-16.56ZM116.29 171.36a23.55 23.55 0 0 0 7.16 13.26l215 201.31a4.55 4.55 0 0 0 6 .16l9.21-7.71a4.55 4.55 0 0 0 .56-6.41L166.81 148.6c-4.31-5.14-4.1-12.95.91-17.41a12.26 12.26 0 0 1 17.55 1.27l187.8 223.76a4.54 4.54 0 0 0 6.41.56l9.21-7.71a4.56 4.56 0 0 0 .89-6L228.64 96.45a23.61 23.61 0 0 0-11.81-9.37l-104.6-37.6A11.09 11.09 0 0 0 97.54 61.8Z" fill="#3674e8" class="fill-000000"></path></svg>