<?xml version="1.0" ?><svg data-name="Layer 1" id="Layer_1" viewBox="0 0 512 512" xmlns="http://www.w3.org/2000/svg"><path d="M139.32,265.42q3.87-.75,7.62-1.52l.4-.09c2.4-.5,4.75-1,7.08-1.52l1.21-.27c2.38-.53,4.72-1.06,7-1.61l.91-.22q3.19-.75,6.25-1.52l.85-.21c2.19-.55,4.32-1.1,6.41-1.65l1.07-.28c2-.53,4-1.07,5.9-1.6l.25-.06c2-.56,3.91-1.1,5.8-1.65l1-.29c1.85-.54,3.66-1.07,5.4-1.6l.07,0,5-1.52.91-.29.34-.11a30.39,30.39,0,0,1-2.72-8.23l-1.25-.19c-1.51-.23-3-.46-4.51-.66L192,240l-4.25-.51-2.16-.24-4.38-.43-1.82-.16c-1.66-.14-3.31-.26-4.94-.37l-1.11-.08c-48.31-3.05-82.7,6.73-83.12,6.85a6.68,6.68,0,0,1-1.91.27,6.78,6.78,0,0,1-1.91-13.29c1.77-.51,35.48-10.09,83.68-7.63,6,.31,12.32.81,18.78,1.54l.81.09c3,.34,6.06.75,9.15,1.2l.7.1V184.71a30.71,30.71,0,0,1,4.84-16.55c-30.63-22.69-79.76-54.35-115.4-54.35-1.65,0-3.3.07-4.9.21-15,1.34-25.15,18.55-29.84,28.69C39.24,175.25,36,230.56,55.4,257.9c8.08,11.4,18.82,16.31,32.9,14.93,17.59-1.68,34.26-4.21,49.59-7.14Z"/><path d="M298.88,235.74v-51a17.39,17.39,0,0,0-17.36-17.36h-51a17.38,17.38,0,0,0-17.36,17.36v51a17.38,17.38,0,0,0,17.36,17.36h51A17.39,17.39,0,0,0,298.88,235.74Z"/><path d="M457.74,142.71C453.05,132.57,443,115.36,427.9,114c-35.87-3.37-88.25,30.3-120.32,54.1a30.75,30.75,0,0,1,4.86,16.59v42.64l.7-.1c3.08-.45,6.14-.86,9.14-1.2l.83-.09c6.46-.73,12.73-1.23,18.77-1.54,48.21-2.47,81.91,7.11,83.68,7.63a6.78,6.78,0,0,1-1.91,13.29,6.61,6.61,0,0,1-1.9-.27c-.41-.12-34.94-9.87-83.18-6.83l-1,.07c-1.68.11-3.37.23-5.08.38l-1.76.15c-1.47.13-2.94.28-4.43.43l-2.14.24c-1.41.15-2.82.33-4.24.51l-2.28.29-4.49.66-1.25.19a30.62,30.62,0,0,1-2.72,8.23l.35.11.9.29c1.61.5,3.25,1,5,1.53h.05l5.4,1.6,1,.29c1.89.55,3.81,1.1,5.81,1.65l.19,0c1.93.54,3.92,1.07,5.95,1.61l1.06.28c2.09.55,4.22,1.1,6.41,1.65l.84.21,6.27,1.53.9.21c2.3.55,4.64,1.08,7,1.62l1.18.26q3.48.76,7.08,1.52l.42.09c2.49.51,5,1,7.6,1.52l1.45.27c15.33,2.93,32,5.46,49.58,7.14,14.11,1.38,24.82-3.53,32.9-14.93C476,230.56,472.76,175.25,457.74,142.71Z"/><path d="M116.68,287.15c-19.9,33-28.33,61.44-28.33,61.44l54-25.4,13,75c15-64.3,45.19-107.32,68.18-132.36a30.48,30.48,0,0,1-6.71-2.41A581.5,581.5,0,0,1,116.68,287.15Z"/><path d="M295.19,263.44a30.48,30.48,0,0,1-6.71,2.41c23,25,53.18,68.06,68.18,132.36l13-75,54,25.4s-8.42-28.48-28.33-61.44A581.74,581.74,0,0,1,295.19,263.44Z"/></svg>